<svg width="52" height="50" viewBox="0 0 52 50" fill="none" xmlns="http://www.w3.org/2000/svg">
<g id="Black">
<path id="Vector" d="M17.8301 0.123756C16.4987 0.416256 15.4598 0.930653 14.189 1.89893C13.7452 2.23177 13.2207 2.56461 13.0089 2.63522C11.6069 3.12944 10.4873 4.18849 9.96285 5.50978C9.37785 7.01262 9.47871 8.30365 10.3159 10.0385C10.6185 10.6739 10.8706 11.1984 10.8706 11.2286C10.8706 11.2488 10.679 11.269 10.447 11.269C9.61992 11.2791 8.74242 11.8943 8.40958 12.7012C8.20785 13.1854 8.20785 14.194 8.40958 14.6781C8.79285 15.606 9.60983 16.1003 10.7496 16.1104H11.4758V16.6954C11.4758 17.5527 11.8086 18.7529 12.3432 19.8221C12.8878 20.9013 13.9469 22.1116 14.9253 22.7773L15.5103 23.1808V24.1188V25.0568L10.4974 25.894C7.7338 26.3478 5.20217 26.8118 4.86933 26.9127C3.10424 27.4573 1.6014 29.0106 1.13744 30.7858C1.00632 31.3002 0.986145 32.6416 0.986145 40.4887C0.986145 49.4654 0.986145 49.5965 1.18787 49.7982C1.38959 49.9999 1.52071 49.9999 25.667 49.9999C49.7226 49.9999 49.9546 49.9999 50.2874 49.7982C50.469 49.6873 50.7009 49.4553 50.8119 49.2737C51.0035 48.951 51.0136 48.7493 51.0136 40.3172C51.0136 31.8852 51.0035 31.6834 50.8119 31.3607C50.7009 31.1791 50.469 30.9471 50.2874 30.8362C49.9747 30.6446 49.773 30.6345 47.2616 30.6345H44.5585V29.0913C44.5585 27.3665 44.4576 27.0135 43.8423 26.4285C43.1666 25.783 43.2271 25.7931 38.1033 25.7931C33.1409 25.7931 33.03 25.8032 32.4954 26.3075C32.2836 26.5092 32.2836 26.4991 27.9364 25.783L23.5792 25.0568V24.1188V23.1808L24.1642 22.7773C24.84 22.3134 25.8385 21.3047 26.2924 20.6189C27.0488 19.4993 27.6137 17.825 27.6137 16.6954V16.1104H28.35C29.8932 16.1003 30.8413 15.1723 30.8413 13.6695C30.8312 12.3079 29.8528 11.269 28.5719 11.269C28.3197 11.269 28.118 11.2488 28.118 11.2286C28.118 11.2085 28.2491 10.9059 28.4105 10.5529C28.8946 9.46357 29.056 8.59615 28.9955 7.36564C28.945 6.10487 28.7131 5.2778 28.1482 4.31961C27.6843 3.5228 26.837 2.6453 26.1007 2.17125C25.3947 1.71737 22.7219 0.50703 21.8645 0.254879C20.987 -0.0174484 18.758 -0.0880508 17.8301 0.123756ZM21.1081 1.83841C21.4409 1.92918 22.4697 2.34272 23.3976 2.75625C24.8198 3.40177 25.1829 3.61358 25.7276 4.1078C26.4134 4.74323 26.9379 5.59047 27.1699 6.46797C27.3615 7.174 27.3413 8.37426 27.1194 9.05003L26.948 9.60477L26.3731 8.4852C26.0604 7.86995 25.7376 7.33538 25.6469 7.29503C25.1728 7.11348 24.8299 7.23452 23.8818 7.94055C22.2176 9.16098 21.1585 9.55434 19.5447 9.55434C17.941 9.55434 16.8618 9.15089 15.2077 7.94055C14.2394 7.22443 13.846 7.09331 13.4123 7.32529C13.3215 7.37572 12.9887 7.92038 12.6861 8.53564C12.3835 9.15089 12.1112 9.6552 12.0709 9.6552C11.9599 9.6552 11.4758 8.47512 11.3648 7.92038C11.153 6.85124 11.6977 5.50978 12.6357 4.79366C13.3417 4.25909 13.9469 4.07754 14.8849 4.12797C16.1053 4.18849 17.003 4.6928 17.8301 5.80228L18.0822 6.13512L18.7681 5.67116C19.1413 5.419 19.4439 5.18702 19.4439 5.15676C19.4439 4.99538 18.7681 4.15823 18.284 3.73461C17.7595 3.26056 17.2451 2.95797 16.5693 2.69574L16.2667 2.5747L16.7609 2.32254C17.9208 1.72746 19.8473 1.51565 21.1081 1.83841ZM15.9641 10.4722C17.1442 11.0471 18.1226 11.269 19.5447 11.269C21.3703 11.269 23.0446 10.7445 24.3558 9.74598L24.8904 9.35262L25.4552 10.4823L26.0301 11.622L25.9696 14.3453C25.9293 16.4432 25.8788 17.2098 25.7477 17.6737C24.2852 22.969 17.4972 24.2096 14.3302 19.7616C13.3215 18.3596 13.0896 17.2198 13.0896 13.6594V11.5716L13.6443 10.4621L14.199 9.34253L14.6832 9.70563C14.9353 9.90736 15.5203 10.2503 15.9641 10.4722ZM11.4758 13.6897V14.4966H11.1228C10.5781 14.4966 10.0839 14.2545 10.0032 13.9519C9.84181 13.3064 10.2654 12.8929 11.1026 12.8828H11.4758V13.6897ZM28.6727 13.024C29.0459 13.1854 29.1972 13.5081 29.0863 13.9519C29.0056 14.2545 28.5113 14.4966 27.9667 14.4966H27.6137V13.6897V12.8828H27.9667C28.1684 12.8828 28.4811 12.9433 28.6727 13.024ZM17.9309 24.0684C18.8286 24.2701 20.8862 24.1894 21.7939 23.9171C21.9452 23.8666 21.9654 23.9473 21.9654 24.6029V25.3392L20.7551 26.5496L19.5447 27.7599L18.3344 26.5496L17.124 25.3392V24.6029C17.124 23.9473 17.1442 23.8666 17.3056 23.9171C17.3964 23.9473 17.6788 24.0179 17.9309 24.0684ZM16.4483 27.185L16.9223 27.6691L16.6197 28.5668C16.1759 29.878 16.1961 29.9789 17.0434 31.2598L17.7595 32.3592L17.0434 34.1747C16.6399 35.1732 16.3171 36.1314 16.3171 36.313C16.3171 36.6257 18.5159 46.3387 18.7479 47.0548C18.8689 47.428 19.1009 47.5793 19.5447 47.5793C19.9885 47.5793 20.2205 47.428 20.3415 47.0548C20.5735 46.3387 22.7723 36.6257 22.7723 36.313C22.7723 36.1314 22.4495 35.1732 22.0461 34.1747L21.33 32.3592L22.0461 31.2598C22.8933 29.9789 22.9135 29.878 22.4697 28.5668L22.1671 27.659L22.6412 27.1951L23.1253 26.721L27.3918 27.4271L31.6481 28.1432V29.3939V30.6345H28.9551C26.4336 30.6345 26.2319 30.6446 25.9192 30.8362C25.7376 30.9471 25.5057 31.1791 25.3947 31.3607C25.2031 31.6834 25.193 31.8852 25.193 40.0348V48.3861H17.9309H10.6689V41.5275V34.6689H9.86199H9.05509V41.5275V48.3861H5.82751H2.59993V40.4887C2.61002 36.1516 2.65037 32.2987 2.69071 31.9255C2.81174 31.0278 3.25554 30.0999 3.87079 29.4947C4.76846 28.6071 4.87941 28.5769 10.6487 27.5985C13.5233 27.1144 15.8834 26.721 15.9137 26.7109C15.944 26.7009 16.186 26.9227 16.4483 27.185ZM42.3798 27.5481C42.8337 27.7397 42.9447 28.1028 42.9447 29.4947V30.6345L40.413 30.6143L37.8814 30.584L37.6797 30.0797C37.3166 29.1417 36.3382 27.9818 35.5313 27.5279C35.2086 27.3464 41.9361 27.3565 42.3798 27.5481ZM34.2504 28.8089C34.4824 28.9198 34.8354 29.172 35.0371 29.3535C35.4305 29.6864 35.9852 30.3924 35.9852 30.5538C35.9852 30.5941 35.3699 30.6345 34.6236 30.6345H33.2619V29.5351V28.4256L33.5443 28.5063C33.6956 28.5567 34.0083 28.6878 34.2504 28.8089ZM18.7479 29.4746C19.0606 29.757 19.222 29.8276 19.5447 29.8276C19.8675 29.8276 20.0289 29.757 20.3415 29.4746C20.5533 29.2829 20.7551 29.1215 20.7853 29.1215C20.8156 29.1215 20.866 29.2627 20.9064 29.4342C20.9669 29.6964 20.8963 29.8679 20.4121 30.5941C19.9078 31.3405 19.807 31.4414 19.5447 31.4414C19.2825 31.4414 19.1816 31.3405 18.6773 30.5941C18.1932 29.8679 18.1226 29.6964 18.1831 29.4342C18.2234 29.2627 18.2739 29.1215 18.3041 29.1215C18.3344 29.1215 18.5361 29.2829 18.7479 29.4746ZM49.3998 33.3275C49.3897 35.5263 49.0972 36.4945 48.1491 37.4527C47.08 38.5219 46.3135 38.7034 42.8236 38.7034H40.524V37.2913C40.524 35.3548 40.6854 35.4758 38.1033 35.4758C35.5212 35.4758 35.6826 35.3548 35.6826 37.2913V38.7034H33.3931C29.8932 38.7034 29.1266 38.5219 28.0575 37.4527C27.1094 36.4945 26.8169 35.5263 26.8068 33.3275V32.2483H38.1033H49.3998V33.3275ZM20.4121 34.7194L21.0577 36.3332L20.3314 39.5305C19.928 41.2956 19.575 42.7379 19.5447 42.7379C19.5145 42.7379 19.1614 41.2956 18.758 39.5305L18.0318 36.3332L18.5966 34.9211C18.9093 34.1445 19.2018 33.4082 19.2522 33.277C19.3127 33.1157 19.4136 33.0551 19.5548 33.0753C19.7263 33.0955 19.8877 33.4183 20.4121 34.7194ZM38.9102 39.0564C38.9102 41.2552 38.8295 41.6688 38.3655 41.7898C37.9218 41.9007 37.599 41.7494 37.4376 41.3763C37.3368 41.114 37.2964 40.5391 37.2964 39.0564V37.0896H38.1033H38.9102V39.0564ZM28.1886 39.7019C29.3485 40.2869 29.6007 40.3172 32.7778 40.3172H35.6826V41.0434C35.6927 42.5967 36.6206 43.5448 38.1235 43.5448C38.8699 43.5448 39.4246 43.3128 39.8886 42.8287C40.3525 42.3344 40.524 41.8503 40.524 41.0232V40.3172H43.4288C45.8091 40.3172 46.4345 40.2869 46.8884 40.1558C47.6549 39.9238 48.5324 39.47 48.9964 39.0463L49.3998 38.6832V41.9209V45.1586H38.1033H26.8068V41.9209V38.6832L27.2102 39.0463C27.4321 39.238 27.8658 39.5406 28.1886 39.7019ZM49.3998 47.5793V48.3861H38.1033H26.8068V47.5793V46.7724H38.1033H49.3998V47.5793Z" fill="#16A6EC"/>
</g>
</svg>
