<svg width="20" height="21" viewBox="0 0 20 21" fill="none" xmlns="http://www.w3.org/2000/svg">
<g id="briefcase">
<path id="Vector" d="M16.6667 6.7735H3.33335C2.41288 6.7735 1.66669 7.51969 1.66669 8.44017V16.7735C1.66669 17.694 2.41288 18.4402 3.33335 18.4402H16.6667C17.5872 18.4402 18.3334 17.694 18.3334 16.7735V8.44017C18.3334 7.51969 17.5872 6.7735 16.6667 6.7735Z" stroke="#717B9E" stroke-linecap="round" stroke-linejoin="round"/>
<path id="Vector_2" d="M13.3334 18.4402V5.10685C13.3334 4.66482 13.1578 4.2409 12.8452 3.92834C12.5326 3.61578 12.1087 3.44019 11.6667 3.44019H8.33335C7.89133 3.44019 7.4674 3.61578 7.15484 3.92834C6.84228 4.2409 6.66669 4.66482 6.66669 5.10685V18.4402" stroke="#717B9E" stroke-linecap="round" stroke-linejoin="round"/>
</g>
</svg>
