<svg width="20" height="21" viewBox="0 0 20 21" fill="none" xmlns="http://www.w3.org/2000/svg">
<g id="map-pin" clip-path="url(#clip0_0_280)">
<path id="Vector" d="M17.5 9.2735C17.5 15.1068 10 20.1068 10 20.1068C10 20.1068 2.5 15.1068 2.5 9.2735C2.5 7.28438 3.29018 5.37672 4.6967 3.9702C6.10322 2.56367 8.01088 1.7735 10 1.7735C11.9891 1.7735 13.8968 2.56367 15.3033 3.9702C16.7098 5.37672 17.5 7.28438 17.5 9.2735Z" stroke="#717B9E" stroke-linecap="round" stroke-linejoin="round"/>
<path id="Vector_2" d="M10 11.7735C11.3807 11.7735 12.5 10.6542 12.5 9.2735C12.5 7.89279 11.3807 6.7735 10 6.7735C8.61929 6.7735 7.5 7.89279 7.5 9.2735C7.5 10.6542 8.61929 11.7735 10 11.7735Z" stroke="#717B9E" stroke-linecap="round" stroke-linejoin="round"/>
</g>
<defs>
<clipPath id="clip0_0_280">
<rect width="20" height="20" fill="white" transform="translate(0 0.940186)"/>
</clipPath>
</defs>
</svg>
